<svg width="82" height="33" viewBox="0 0 82 33" fill="none" xmlns="http://www.w3.org/2000/svg">
<path d="M72.3302 6.64559C68.9438 6.64559 65.9756 8.48034 64.3579 11.213C64.3477 11.213 64.3436 11.213 64.3436 11.213C64.3436 11.213 61.7773 15.3909 57.3954 21.6454C57.3954 21.6454 61.5713 10.7394 66.9161 3.52549C66.9161 3.52549 65.9818 1.50829 63.6378 0.866642C63.6378 0.866642 54.8597 9.21424 48.499 20.0997C48.499 20.0997 50.643 14.2962 55.9817 6.48159C55.9817 6.48159 55.0249 4.47464 52.6993 3.81249C52.6993 3.81249 47.5932 8.44344 41.208 17.6848C41.208 17.6848 43.4826 13.2876 45.8959 9.39259C45.8959 9.39259 44.6862 7.21139 42.5972 6.71734C42.5972 6.71734 41.2835 8.16464 38.8416 13.2773C38.8416 13.2773 34.119 19.6569 30.6 23.4453C30.6 23.4453 31.5404 18.1973 38.7886 6.64149C38.7886 6.64149 37.9012 4.67349 35.4899 3.98264C35.4899 3.98264 28.7966 11.7009 22.2686 21.4507C22.2686 21.4507 25.6224 12.6931 30.0145 5.86864C30.0145 5.86864 28.6396 3.54804 26.7342 3.19954C26.7342 3.19954 22.4869 8.36349 18.3865 14.2716C17.593 9.93994 13.8067 6.64559 9.26976 6.64559C4.15752 6.64559 0 10.8255 0 15.9608C0 21.096 4.15752 25.276 9.26976 25.276C12.6398 25.276 15.5958 23.4576 17.2176 20.7496C18.0846 19.413 20.347 15.9259 21.4608 14.2039C19.4963 18.4802 17.7704 22.8037 15.5978 28.8102C15.5978 28.8102 16.6648 30.9073 18.8598 31.4752C18.8598 31.4752 26.5302 18.9866 30.2083 15.2658C30.2083 15.2658 28.2642 19.3269 26.5078 24.9377C26.5078 24.9377 27.4829 27.0103 29.7656 27.6191C29.7656 27.6191 32.5156 25.1243 36.3161 19.9234L32.6461 29.4703C32.6461 29.4703 33.8762 31.7478 35.8795 32.1353C35.8795 32.1353 43.6336 17.4655 48.7417 11.8731C48.7417 11.8731 44.931 20.1141 43.9212 24.458C43.9212 24.458 44.5883 26.301 47.2036 27.1353C47.2036 27.1353 53.8315 15.7599 58.8907 10.436C58.8907 10.436 54.211 19.6733 53.0482 24.1485C53.0482 24.1485 53.8295 26.0878 56.306 26.8606C56.306 26.8606 58.9111 23.8533 63.1972 17.5803C63.9601 21.9488 67.7627 25.2801 72.3262 25.2801C77.4384 25.2801 81.5959 21.1022 81.5959 15.9649C81.6 10.8255 77.4425 6.64559 72.3302 6.64559ZM9.26976 21.6721C6.13632 21.6721 3.58632 19.1116 3.58632 15.9608C3.58632 12.812 6.13632 10.2495 9.26976 10.2495C12.4032 10.2495 14.9532 12.812 14.9532 15.9608C14.9532 19.1116 12.4032 21.6721 9.26976 21.6721ZM72.3302 21.6721C69.1968 21.6721 66.6468 19.1116 66.6468 15.9608C66.6468 12.812 69.1968 10.2495 72.3302 10.2495C75.4637 10.2495 78.0137 12.812 78.0137 15.9608C78.0137 19.1116 75.4637 21.6721 72.3302 21.6721Z" fill="white"/>
</svg>
