<svg width="34" height="34" viewBox="0 0 34 34" fill="none" xmlns="http://www.w3.org/2000/svg">
<path opacity="0.35" d="M17 34C26.3888 34 34 26.3888 34 17C34 7.61116 26.3888 0 17 0C7.61116 0 0 7.61116 0 17C0 26.3888 7.61116 34 17 34Z" fill="#8A8A8E"/>
<path d="M11.4714 20.6425H9.50606C7.46689 20.6425 5.81445 18.9901 5.81445 16.9509C5.81445 14.9117 7.46689 13.2593 9.50606 13.2593H11.5698L16.7487 8.50592C17.7964 7.75705 19.2519 8.50592 19.2519 9.79622V24.2041C19.2519 25.4873 17.8034 26.2397 16.7557 25.4979L11.4714 20.6425Z" fill="white"/>
<path d="M21.9131 13.5864C22.4475 14.3775 22.7604 15.3303 22.7604 16.3569C22.7604 17.3835 22.4475 18.3363 21.9131 19.1274" stroke="white" stroke-width="1.5" stroke-miterlimit="10" stroke-linecap="round" stroke-linejoin="round"/>
<path d="M22.3984 10.0142C24.6556 11.2693 26.1815 13.6776 26.1815 16.4446C26.1815 19.0498 24.8279 21.3386 22.7852 22.643" stroke="white" stroke-width="1.5" stroke-miterlimit="10" stroke-linecap="round" stroke-linejoin="round"/>
</svg>
