<svg width="45" height="44" viewBox="0 0 45 44" fill="none" xmlns="http://www.w3.org/2000/svg">
<path d="M22.8922 42C33.9379 42 42.8922 33.0457 42.8922 22C42.8922 10.9543 33.9379 2 22.8922 2C11.8465 2 2.89224 10.9543 2.89224 22C2.89224 33.0457 11.8465 42 22.8922 42Z" fill="#EF005A"/>
<mask id="mask0" style="mask-type:alpha" maskUnits="userSpaceOnUse" x="4" y="4" width="37" height="36">
<path d="M22.8923 39.8949C32.7753 39.8949 40.787 31.8832 40.787 22.0002C40.787 12.1172 32.7753 4.10547 22.8923 4.10547C13.0093 4.10547 4.99753 12.1172 4.99753 22.0002C4.99753 31.8832 13.0093 39.8949 22.8923 39.8949Z" fill="white"/>
</mask>
<g mask="url(#mask0)">
<path d="M22.8923 39.8949C32.7753 39.8949 40.787 31.8832 40.787 22.0002C40.787 12.1172 32.7753 4.10547 22.8923 4.10547C13.0093 4.10547 4.99753 12.1172 4.99753 22.0002C4.99753 31.8832 13.0093 39.8949 22.8923 39.8949Z" fill="white"/>
<path d="M40.6203 25.5025C38.9315 25.5025 37.557 24.128 37.557 22.4393C37.557 20.7505 38.9315 19.376 40.6203 19.376C41.1483 19.376 41.6414 19.5113 42.0777 19.7469C41.9556 18.9964 41.7897 18.2589 41.5803 17.5389C41.2705 17.4778 40.9475 17.4429 40.6203 17.4429C38.7963 17.4429 37.1948 18.4291 36.3221 19.8953C36.3177 19.8953 36.3134 19.8953 36.3134 19.8953C36.3134 19.8953 34.9301 22.1382 32.565 25.4938C32.565 25.4938 34.8166 19.6422 37.6966 15.7716C37.6966 15.7716 37.1948 14.6895 35.9294 14.3447C35.9294 14.3447 31.1948 18.8218 27.765 24.6647C27.765 24.6647 28.9214 21.5491 31.8014 17.36C31.8014 17.36 31.2865 16.2822 30.0297 15.9287C30.0297 15.9287 27.2763 18.4116 23.8334 23.3731C23.8334 23.3731 25.0595 21.0124 26.3599 18.9222C26.3599 18.9222 25.7097 17.7527 24.5795 17.4865C24.5795 17.4865 23.8726 18.2633 22.5548 21.008C22.5548 21.008 20.0065 24.4291 18.1126 26.4625C18.1126 26.4625 18.6188 23.648 22.5286 17.4473C22.5286 17.4473 22.0486 16.3913 20.7483 16.0204C20.7483 16.0204 17.1396 20.1615 13.6181 25.3935C13.6181 25.3935 15.4246 20.6938 17.7941 17.0327C17.7941 17.0327 17.0523 15.7891 16.0268 15.6015C16.0268 15.6015 13.7359 18.3724 11.5279 21.5404C11.1003 19.2145 9.0581 17.4473 6.61446 17.4473C6.28719 17.4473 5.96428 17.4822 5.65446 17.5433C5.44501 18.2633 5.27919 19.0007 5.15701 19.7513C5.58901 19.5156 6.08646 19.3804 6.61446 19.3804C8.30319 19.3804 9.67773 20.7549 9.67773 22.4436C9.67773 24.1324 8.30319 25.5069 6.61446 25.5069C6.05155 25.5069 5.52355 25.3498 5.06973 25.0836C5.16573 25.8385 5.30101 26.5804 5.48428 27.3047C5.85082 27.3876 6.2261 27.44 6.61882 27.44C8.4341 27.44 10.0312 26.4625 10.9039 25.0095C11.3708 24.2938 12.5926 22.4218 13.1905 21.4967C12.1301 23.792 11.2006 26.1091 10.0312 29.3338C10.0312 29.3338 10.6072 30.4596 11.7897 30.7651C11.7897 30.7651 15.9265 24.0625 17.9075 22.0684C17.9075 22.0684 16.8603 24.2458 15.9134 27.2567C15.9134 27.2567 16.437 28.3695 17.6719 28.6967C17.6719 28.6967 19.1556 27.3571 21.2021 24.5687L19.2254 29.6916C19.2254 29.6916 19.8886 30.9134 20.9708 31.1229C20.9708 31.1229 25.1512 23.2509 27.9046 20.2531C27.9046 20.2531 25.8494 24.6735 25.3039 27.0036C25.3039 27.0036 25.6617 27.9942 27.0756 28.4393C27.0756 28.4393 30.6494 22.3345 33.3766 19.4807C33.3766 19.4807 30.8545 24.4378 30.2261 26.8378C30.2261 26.8378 30.6494 27.8764 31.9846 28.2909C31.9846 28.2909 33.3897 26.6764 35.6981 23.312C36.1083 25.6553 38.1592 27.4444 40.6203 27.4444C41.0086 27.4444 41.3883 27.3964 41.7505 27.3091C41.9337 26.5847 42.069 25.8429 42.165 25.088C41.7112 25.3455 41.1832 25.5025 40.6203 25.5025Z" fill="#EF005A"/>
</g>
<path d="M22.8922 42C33.9379 42 42.8922 33.0457 42.8922 22C42.8922 10.9543 33.9379 2 22.8922 2C11.8465 2 2.89224 10.9543 2.89224 22C2.89224 33.0457 11.8465 42 22.8922 42Z" fill="#EF005A"/>
<mask id="mask1" style="mask-type:alpha" maskUnits="userSpaceOnUse" x="4" y="4" width="37" height="36">
<path d="M22.8923 39.8949C32.7753 39.8949 40.787 31.8832 40.787 22.0002C40.787 12.1172 32.7753 4.10547 22.8923 4.10547C13.0093 4.10547 4.99753 12.1172 4.99753 22.0002C4.99753 31.8832 13.0093 39.8949 22.8923 39.8949Z" fill="white"/>
</mask>
<g mask="url(#mask1)">
<path d="M22.8923 39.8949C32.7753 39.8949 40.787 31.8832 40.787 22.0002C40.787 12.1172 32.7753 4.10547 22.8923 4.10547C13.0093 4.10547 4.99753 12.1172 4.99753 22.0002C4.99753 31.8832 13.0093 39.8949 22.8923 39.8949Z" fill="white"/>
</g>
<path d="M38.9998 22.3251V17.9385C38.9998 16.4055 37.7824 16 37.1389 16H31.426V16.0047C30.7621 16.054 29.6872 16.4987 29.6872 17.9385H30.4521C30.4521 16.8354 31.3681 16.7672 31.5513 16.7649H37.1373C37.3213 16.7672 38.2365 16.8354 38.2365 17.9385V22.3306C38.2365 22.3345 38.2357 22.7893 37.9116 23.115C37.6665 23.3616 37.2884 23.4853 36.7873 23.4853H34.3603V24.2502H36.7873C37.506 24.2502 38.0697 24.0459 38.4643 23.6435C39.01 23.0829 39.0006 22.3478 38.9998 22.3251Z" fill="#595A5C"/>
<path d="M12.6151 24.9076L12.6198 26.572C12.6198 26.8977 12.4092 27.0715 11.988 27.0958H8.8337C8.50879 27.0958 8.33499 26.9212 8.30994 26.572V23.9149C8.30994 23.6495 8.53855 23.507 8.99576 23.4858H12.619V24.2531H9.18992V26.3427H11.7344V25.5793H10.4175V24.9076H12.6151Z" fill="#595A5C"/>
<path d="M17.1499 27.0963L15.6741 24.4751L14.6321 26.3345H15.6741V27.0971H13.0114L13.3363 26.5639L15.1777 23.4824H16.1658L18.2185 27.0971H17.1499V27.0963Z" fill="#595A5C"/>
<path d="M18.5214 27.0963V23.4863H19.5055L20.9491 25.8554L22.5189 23.4863H23.4216V27.0963H22.4202V25.1876L21.3007 27.0963H20.5921L19.5227 25.233V27.0963H18.5214Z" fill="#595A5C"/>
<path d="M23.9179 23.4824H24.9694V27.0971H23.9179V23.4824Z" fill="#595A5C"/>
<path d="M26.3772 24.7097L26.3733 27.0968H25.4753V23.4868H26.3733L29.2066 25.8066V23.4868H30.1226V27.0968H29.2066L26.3772 24.7097Z" fill="#595A5C"/>
<path d="M34.923 24.9081L34.9276 26.5725C34.9276 26.8982 34.717 27.072 34.2958 27.0963H31.1415C30.8166 27.0963 30.642 26.9217 30.6178 26.5725V23.9154C30.6178 23.65 30.8464 23.5075 31.3036 23.4863H34.9269V24.2536H31.4977V26.3431H34.043V25.5798H32.7253V24.9081H34.923Z" fill="#595A5C"/>
<path d="M32.518 17.874H27.7258C26.4027 17.874 25.3293 18.9474 25.3293 20.2705C25.3293 21.5936 26.4019 22.667 27.7258 22.667C28.4375 22.667 29.0755 22.3561 29.5147 21.8645L29.5163 21.8684H30.7329C31.1722 22.3585 31.8087 22.667 32.518 22.667C33.8411 22.667 34.9144 21.5944 34.9144 20.2705C34.9144 18.9466 33.8419 17.874 32.518 17.874ZM28.3874 20.6886H28.0836V20.9923C28.0836 21.2601 27.9082 21.4801 27.6945 21.4801C27.48 21.4801 27.3046 21.2609 27.3046 20.9923V20.6886H27.0008C26.7331 20.6886 26.5139 20.5132 26.5139 20.2995C26.5139 20.0849 26.7331 19.9096 27.0008 19.9096H27.3046V19.6058C27.3046 19.3381 27.48 19.1181 27.6945 19.1181C27.9082 19.1181 28.0836 19.3381 28.0836 19.6058V19.9096H28.3874C28.6551 19.9096 28.8743 20.0849 28.8743 20.2995C28.8743 20.5132 28.6559 20.6886 28.3874 20.6886ZM32.5352 19.1188C32.7536 19.1188 32.9306 19.2958 32.9306 19.515C32.9306 19.7326 32.7536 19.9096 32.5352 19.9096C32.3168 19.9096 32.1398 19.7319 32.1398 19.515C32.1406 19.2958 32.3168 19.1188 32.5352 19.1188ZM31.7452 20.694C31.5268 20.694 31.3499 20.5171 31.3499 20.2995C31.3499 20.081 31.5268 19.9033 31.7452 19.9033C31.9629 19.9033 32.1406 20.081 32.1406 20.2995C32.1406 20.5171 31.9629 20.694 31.7452 20.694ZM32.5352 21.4793C32.3168 21.4793 32.1398 21.3024 32.1398 21.0839C32.1398 20.8655 32.3168 20.6886 32.5352 20.6886C32.7536 20.6886 32.9306 20.8655 32.9306 21.0839C32.9306 21.3024 32.7536 21.4793 32.5352 21.4793ZM33.3259 20.694C33.1075 20.694 32.9306 20.5171 32.9306 20.2995C32.9306 20.081 33.1075 19.9033 33.3259 19.9033C33.5444 19.9033 33.7213 20.081 33.7213 20.2995C33.7213 20.5171 33.5444 20.694 33.3259 20.694Z" fill="#595A5C"/>
<path d="M38.8284 22.3251V17.9385C38.8284 16.4055 37.611 16 36.9666 16H31.2538V16.0047C30.5899 16.054 29.515 16.4987 29.515 17.9385H30.2799C30.2799 16.8354 31.1958 16.7672 31.379 16.7649H36.9643C37.1475 16.7672 38.0635 16.8354 38.0635 17.9385V22.3306C38.0635 22.3345 38.0627 22.7893 37.7386 23.115C37.4935 23.3616 37.1154 23.4853 36.6143 23.4853H34.1873V24.2502H36.6143C37.333 24.2502 37.8967 24.0459 38.2913 23.6435C38.8393 23.0829 38.8292 22.3478 38.8284 22.3251Z" fill="url(#paint0_linear)"/>
<path d="M12.2127 21.6888V18.8758C12.1352 18.8938 11.8103 18.9932 11.6334 19.178C11.5574 19.2563 11.5183 19.3455 11.5183 19.4191V21.6895H12.2127V21.6888ZM14.7979 19.2218C14.5411 18.9627 14.2451 18.9188 13.8732 18.9181C13.4881 18.9173 13.1326 19.0707 13.0645 19.1208C13.0081 19.1639 12.969 19.221 12.969 19.297V19.6634C13.2234 19.5773 13.5546 19.5256 13.7574 19.5256C13.9625 19.5264 14.1387 19.5499 14.253 19.6438C14.3853 19.7526 14.4009 19.9335 14.4009 20.0204C14.4009 20.0509 14.3986 20.0705 14.3986 20.0705L14.3978 20.0815L14.3868 20.0799C14.3868 20.0799 14.0799 20.0454 13.7597 20.0462C13.4387 20.0447 13.1585 20.1057 12.9643 20.256C12.7952 20.3883 12.6629 20.6397 12.6629 20.9051C12.6629 21.2088 12.796 21.4194 12.9502 21.5463C13.1091 21.6786 13.4082 21.7396 13.6572 21.7396C13.9257 21.7396 14.1073 21.6942 14.2216 21.6504C14.3352 21.6058 14.3806 21.5627 14.3806 21.5627L14.3994 21.5447V21.6872H15.0562V20.094C15.0562 19.7205 14.9905 19.4183 14.7979 19.2218ZM14.3994 20.7649C14.3994 20.9129 14.3359 21.1133 14.1238 21.2041C14.0204 21.248 13.9116 21.2722 13.8075 21.2722C13.7018 21.2722 13.6 21.2472 13.5131 21.194C13.4019 21.1258 13.3589 21.0045 13.3589 20.8918C13.3589 20.815 13.3785 20.7414 13.4113 20.6905C13.4896 20.5684 13.6439 20.4917 13.8983 20.4854C13.9179 20.4846 13.9382 20.4846 13.957 20.4846C14.242 20.4846 14.4001 20.5387 14.4001 20.5387V20.7649H14.3994ZM15.5565 18.4796C15.5565 18.3927 15.587 18.2894 15.6598 18.2174C15.8399 18.0326 16.1789 17.9496 16.2572 17.9285V21.6888H15.5565V18.4796ZM18.1174 18.9181C17.2883 18.9181 16.6494 19.5412 16.6494 20.3445C16.6494 21.1423 17.2781 21.7498 18.1072 21.7498C18.941 21.7498 19.5955 21.1321 19.5955 20.3234C19.5963 19.5209 18.9519 18.9181 18.1174 18.9181ZM18.1174 21.1423C17.6954 21.1423 17.3556 20.7767 17.3556 20.3234C17.3556 19.8607 17.675 19.5358 18.108 19.5358C18.5354 19.5358 18.8752 19.881 18.8752 20.3445C18.8752 20.8025 18.5605 21.1423 18.1174 21.1423ZM22.345 19.03C22.2832 19.0504 22.1603 19.1224 22.1031 19.2445C21.8001 18.9627 21.4463 18.9275 21.1488 18.9275C20.5224 18.9275 19.9118 19.3839 19.9118 20.2357C19.9118 21.093 20.5318 21.504 21.1488 21.504C21.4972 21.504 21.8205 21.4218 22.1078 21.1752C22.1078 21.5189 22.0162 21.6974 21.9129 21.807C21.7696 21.9557 21.548 22.027 21.2451 22.027C21.1026 22.027 20.9483 21.9964 20.8043 21.9604V22.2939C20.8043 22.391 20.8614 22.4677 20.9382 22.5045C21.1128 22.5813 21.3695 22.6118 21.5441 22.6118C21.8933 22.6118 22.237 22.4834 22.4938 22.2383C22.7295 22.0066 22.8469 21.6167 22.8469 21.1141V18.9275C22.7749 18.9321 22.5392 18.9525 22.345 19.03ZM21.3695 20.9043C20.9429 20.9043 20.6352 20.606 20.6352 20.2153C20.6352 19.8254 20.8967 19.517 21.3382 19.517C21.7587 19.517 22.1031 19.7839 22.1031 20.2357C22.1031 20.6357 21.8001 20.9043 21.3695 20.9043ZM9.29874 21.688H8.08133V19.2469C8.08133 19.1702 8.08446 19.0527 8.1651 18.9689C8.36161 18.7662 8.67555 18.7458 8.78438 18.7302V21.0319H9.29874C9.92115 21.0319 10.3729 20.4972 10.3729 19.8434V19.8333C10.3729 19.1788 9.94621 18.7302 9.29874 18.7302H8.76167C8.57612 18.7302 8.34125 18.6777 8.14788 18.5047C8.06489 18.4303 7.99991 18.2878 7.99991 18.1782V18.0647H9.29796C10.3846 18.0647 11.1362 18.8053 11.1362 19.8434V19.8536C11.1362 20.8918 10.3854 21.688 9.29874 21.688Z" fill="#EB2227"/>
<path d="M12.3091 24.9076L12.3138 26.572C12.3138 26.8977 12.1032 27.0715 11.682 27.0958H8.52764C8.20273 27.0958 8.02815 26.9212 8.00388 26.572V23.9149C8.00388 23.6495 8.23248 23.507 8.6897 23.4858H12.313V24.2531H8.88386V26.3427H11.4283V25.5793H10.1107V24.9076H12.3091Z" fill="url(#paint1_linear)"/>
<path d="M16.8436 27.0963L15.3686 24.4751L14.3258 26.3345H15.3686V27.0971H12.706L13.0309 26.5639L14.8715 23.4824H15.8603L17.9131 27.0971H16.8436V27.0963Z" fill="url(#paint2_linear)"/>
<path d="M18.2154 27.0963V23.4863H19.1987L20.6424 25.8554L22.2129 23.4863H23.1156V27.0963H22.1142V25.1876L20.9947 27.0963H20.2861L19.2167 25.233V27.0963H18.2154Z" fill="url(#paint3_linear)"/>
<path d="M23.6119 23.4824H24.6634V27.0971H23.6119V23.4824Z" fill="url(#paint4_linear)"/>
<path d="M26.071 24.7097L26.0663 27.0968H25.1683V23.4868H26.0663L28.9004 25.8066V23.4868H29.8156V27.0968H28.9004L26.071 24.7097Z" fill="url(#paint5_linear)"/>
<path d="M34.6162 24.9081L34.6209 26.5725C34.6209 26.8982 34.4103 27.072 33.9891 27.0963H30.8355C30.5106 27.0963 30.336 26.9217 30.3118 26.5725V23.9154C30.3118 23.65 30.5404 23.5075 30.9976 23.4863H34.6209V24.2536H31.1918V26.3431H33.7362V25.5798H32.4193V24.9081H34.6162Z" fill="url(#paint6_linear)"/>
<path d="M32.2941 17.874H27.5011C26.1773 17.874 25.1047 18.9474 25.1047 20.2705C25.1047 21.5936 26.1773 22.667 27.5011 22.667C28.2128 22.667 28.8509 22.3561 29.2901 21.8645L29.2924 21.8684H30.5091C30.9483 22.3585 31.5848 22.667 32.2941 22.667C33.6172 22.667 34.6898 21.5944 34.6898 20.2705C34.6898 18.9466 33.6172 17.874 32.2941 17.874ZM28.1635 20.6886H27.8597V20.9923C27.8597 21.2601 27.6843 21.4801 27.4706 21.4801C27.2561 21.4801 27.0807 21.2609 27.0807 20.9923V20.6886H26.777C26.5092 20.6886 26.29 20.5132 26.29 20.2995C26.29 20.0849 26.5092 19.9096 26.777 19.9096H27.0807V19.6058C27.0807 19.3381 27.2561 19.1181 27.4706 19.1181C27.6851 19.1181 27.8597 19.3381 27.8597 19.6058V19.9096H28.1635C28.4312 19.9096 28.6512 20.0849 28.6512 20.2995C28.6504 20.5132 28.4312 20.6886 28.1635 20.6886ZM32.3113 19.1188C32.5297 19.1188 32.7067 19.2958 32.7067 19.515C32.7067 19.7326 32.5297 19.9096 32.3113 19.9096C32.0929 19.9096 31.9159 19.7319 31.9159 19.515C31.9159 19.2958 32.0929 19.1188 32.3113 19.1188ZM31.5206 20.694C31.3021 20.694 31.1252 20.5171 31.1252 20.2995C31.1252 20.081 31.3021 19.9033 31.5206 19.9033C31.739 19.9033 31.9159 20.081 31.9159 20.2995C31.9159 20.5171 31.739 20.694 31.5206 20.694ZM32.3113 21.4793C32.0929 21.4793 31.9159 21.3024 31.9159 21.0839C31.9159 20.8655 32.0929 20.6886 32.3113 20.6886C32.5297 20.6886 32.7067 20.8655 32.7067 21.0839C32.7067 21.3024 32.5297 21.4793 32.3113 21.4793ZM33.1013 20.694C32.8828 20.694 32.7059 20.5171 32.7059 20.2995C32.7059 20.081 32.8828 19.9033 33.1013 19.9033C33.3197 19.9033 33.4966 20.081 33.4966 20.2995C33.4966 20.5171 33.3197 20.694 33.1013 20.694Z" fill="url(#paint7_linear)"/>
<defs>
<linearGradient id="paint0_linear" x1="34.2449" y1="15.9527" x2="34.1001" y2="24.2485" gradientUnits="userSpaceOnUse">
<stop stop-color="#2A2766"/>
<stop offset="0.0955" stop-color="#45276B"/>
<stop offset="0.2" stop-color="#5E2870"/>
<stop offset="1" stop-color="#B64080"/>
</linearGradient>
<linearGradient id="paint1_linear" x1="10.233" y1="27.1467" x2="10.1034" y2="23.4368" gradientUnits="userSpaceOnUse">
<stop stop-color="#2A2766"/>
<stop offset="0.0955" stop-color="#45276B"/>
<stop offset="0.2" stop-color="#5E2870"/>
<stop offset="1" stop-color="#B64080"/>
</linearGradient>
<linearGradient id="paint2_linear" x1="15.3129" y1="27.1874" x2="15.1831" y2="23.4712" gradientUnits="userSpaceOnUse">
<stop stop-color="#2A2766"/>
<stop offset="0.0955" stop-color="#45276B"/>
<stop offset="0.2" stop-color="#5E2870"/>
<stop offset="1" stop-color="#B64080"/>
</linearGradient>
<linearGradient id="paint3_linear" x1="20.7315" y1="27.1799" x2="20.5996" y2="23.4034" gradientUnits="userSpaceOnUse">
<stop stop-color="#2A2766"/>
<stop offset="0.0955" stop-color="#45276B"/>
<stop offset="0.2" stop-color="#5E2870"/>
<stop offset="1" stop-color="#B64080"/>
</linearGradient>
<linearGradient id="paint4_linear" x1="24.2015" y1="27.1128" x2="24.0742" y2="23.4659" gradientUnits="userSpaceOnUse">
<stop stop-color="#2A2766"/>
<stop offset="0.0955" stop-color="#45276B"/>
<stop offset="0.2" stop-color="#5E2870"/>
<stop offset="1" stop-color="#B64080"/>
</linearGradient>
<linearGradient id="paint5_linear" x1="27.558" y1="27.1752" x2="27.4264" y2="23.4075" gradientUnits="userSpaceOnUse">
<stop stop-color="#2A2766"/>
<stop offset="0.0955" stop-color="#45276B"/>
<stop offset="0.2" stop-color="#5E2870"/>
<stop offset="1" stop-color="#B64080"/>
</linearGradient>
<linearGradient id="paint6_linear" x1="32.5406" y1="27.1472" x2="32.4111" y2="23.4373" gradientUnits="userSpaceOnUse">
<stop stop-color="#2A2766"/>
<stop offset="0.0955" stop-color="#45276B"/>
<stop offset="0.2" stop-color="#5E2870"/>
<stop offset="1" stop-color="#B64080"/>
</linearGradient>
<linearGradient id="paint7_linear" x1="29.94" y1="17.8323" x2="29.8549" y2="22.708" gradientUnits="userSpaceOnUse">
<stop offset="0.1" stop-color="#EF5025"/>
<stop offset="0.2877" stop-color="#F06224"/>
<stop offset="0.7631" stop-color="#F48622"/>
<stop offset="1" stop-color="#F69321"/>
</linearGradient>
</defs>
</svg>
