<svg width="58" height="58" viewBox="0 0 58 58" fill="none" xmlns="http://www.w3.org/2000/svg">
<path d="M29.0001 55.3641C43.5603 55.3641 55.3638 43.5607 55.3638 29.0004C55.3638 14.4402 43.5603 2.63678 29.0001 2.63678C14.4399 2.63678 2.63647 14.4402 2.63647 29.0004C2.63647 43.5607 14.4399 55.3641 29.0001 55.3641Z" fill="#222222"/>
<mask id="mask0" mask-type="alpha" maskUnits="userSpaceOnUse" x="5" y="5" width="48" height="48">
<path d="M28.9999 52.5893C42.0275 52.5893 52.5884 42.0283 52.5884 29.0008C52.5884 15.9732 42.0275 5.41223 28.9999 5.41223C15.9723 5.41223 5.41138 15.9732 5.41138 29.0008C5.41138 42.0283 15.9723 52.5893 28.9999 52.5893Z" fill="#BF0E08"/>
</mask>
<g mask="url(#mask0)">
<path d="M28.9999 52.5893C42.0275 52.5893 52.5884 42.0283 52.5884 29.0008C52.5884 15.9732 42.0275 5.41223 28.9999 5.41223C15.9723 5.41223 5.41138 15.9732 5.41138 29.0008C5.41138 42.0283 15.9723 52.5893 28.9999 52.5893Z" fill="#FAFAFA"/>
<path d="M52.3689 33.6176C50.1429 33.6176 48.331 31.8057 48.331 29.5797C48.331 27.3536 50.1429 25.5417 52.3689 25.5417C53.0649 25.5417 53.7149 25.7201 54.2901 26.0307C54.1291 25.0413 53.9105 24.0692 53.6344 23.1201C53.226 23.0396 52.8003 22.9936 52.3689 22.9936C49.9646 22.9936 47.8535 24.2935 46.7031 26.2262C46.6974 26.2262 46.6916 26.2262 46.6916 26.2262C46.6916 26.2262 44.8682 29.1828 41.7506 33.6061C41.7506 33.6061 44.7187 25.8926 48.515 20.7905C48.515 20.7905 47.8535 19.364 46.1855 18.9096C46.1855 18.9096 39.9445 24.8112 35.4233 32.5132C35.4233 32.5132 36.9476 28.4063 40.744 22.8843C40.744 22.8843 40.0653 21.4635 38.4087 20.9976C38.4087 20.9976 34.7791 24.2705 30.2407 30.8106C30.2407 30.8106 31.8571 27.6988 33.5712 24.9435C33.5712 24.9435 32.7141 23.402 31.2243 23.0511C31.2243 23.0511 30.2925 24.075 28.5554 27.693C28.5554 27.693 25.1962 32.2026 22.6998 34.8831C22.6998 34.8831 23.367 31.173 28.5209 22.9993C28.5209 22.9993 27.8881 21.6073 26.174 21.1184C26.174 21.1184 21.4171 26.5771 16.7751 33.4738C16.7751 33.4738 19.1565 27.2789 22.2799 22.4529C22.2799 22.4529 21.302 20.8135 19.9503 20.5662C19.9503 20.5662 16.9304 24.2188 14.0199 28.3948C13.4562 25.3289 10.7642 22.9993 7.54307 22.9993C7.11166 22.9993 6.68601 23.0453 6.27761 23.1259C6.00151 24.075 5.78294 25.0471 5.62188 26.0364C6.19133 25.7258 6.84707 25.5475 7.54307 25.5475C9.76912 25.5475 11.581 27.3594 11.581 29.5854C11.581 31.8115 9.76912 33.6234 7.54307 33.6234C6.80105 33.6234 6.10505 33.4163 5.50684 33.0654C5.63338 34.0605 5.8117 35.0384 6.05328 35.9932C6.53646 36.1025 7.03113 36.1716 7.54882 36.1716C9.94168 36.1716 12.0469 34.8831 13.1973 32.9677C13.8128 32.0243 15.4234 29.5567 16.2114 28.3372C14.8137 31.3628 13.5885 34.4172 12.0469 38.668C12.0469 38.668 12.8062 40.152 14.365 40.5546C14.365 40.5546 19.818 31.7195 22.4294 29.0908C22.4294 29.0908 21.0489 31.961 19.8007 35.93C19.8007 35.93 20.491 37.3967 22.1188 37.8282C22.1188 37.8282 24.0745 36.0623 26.7722 32.3867L24.1665 39.1396C24.1665 39.1396 25.0409 40.7502 26.4674 41.0263C26.4674 41.0263 31.9778 30.6496 35.6074 26.6979C35.6074 26.6979 32.8982 32.5247 32.1792 35.5963C32.1792 35.5963 32.6508 36.9021 34.5145 37.4888C34.5145 37.4888 39.2255 29.4416 42.8205 25.6798C42.8205 25.6798 39.4958 32.2141 38.6675 35.3778C38.6675 35.3778 39.2254 36.7468 40.9856 37.2932C40.9856 37.2932 42.8377 35.1649 45.8806 30.7301C46.4213 33.819 49.1248 36.1773 52.3689 36.1773C52.8809 36.1773 53.3813 36.114 53.8587 35.999C54.1003 35.0442 54.2786 34.0663 54.4052 33.0712C53.8069 33.4106 53.1109 33.6176 52.3689 33.6176Z" fill="#222222"/>
</g>
</svg>
